<svg width="58" height="69" viewBox="0 0 58 69" fill="none" xmlns="http://www.w3.org/2000/svg">
<path d="M35.6923 8.625H40.1538V12.9375H35.6923V8.625ZM44.6154 8.625H49.0769V12.9375H44.6154V8.625ZM35.6923 17.25H40.1538V21.5625H35.6923V17.25ZM44.6154 17.25H49.0769V21.5625H44.6154V17.25ZM35.6923 25.875H40.1538V30.1875H35.6923V25.875ZM44.6154 25.875H49.0769V30.1875H44.6154V25.875ZM35.6923 34.5H40.1538V38.8125H35.6923V34.5ZM44.6154 34.5H49.0769V38.8125H44.6154V34.5ZM35.6923 43.125H40.1538V47.4375H35.6923V43.125ZM44.6154 43.125H49.0769V47.4375H44.6154V43.125ZM53.5385 0H31.2308C30.0475 0 28.9127 0.454351 28.076 1.2631C27.2393 2.07185 26.7692 3.16875 26.7692 4.3125V17.25H4.46154C3.27826 17.25 2.14345 17.7044 1.30675 18.5131C0.470053 19.3219 0 20.4188 0 21.5625V64.6875C0 65.8312 0.470053 66.9281 1.30675 67.7369C2.14345 68.5456 3.27826 69 4.46154 69H53.5385C54.7217 69 55.8565 68.5456 56.6932 67.7369C57.5299 66.9281 58 65.8312 58 64.6875V4.3125C58 3.16875 57.5299 2.07185 56.6932 1.2631C55.8565 0.454351 54.7217 0 53.5385 0ZM17.8462 64.6875H13.3846V56.0625H17.8462V64.6875ZM22.3077 64.6875V51.75H8.92308V64.6875H4.46154V21.5625H26.7692V64.6875H22.3077ZM44.6154 64.6875H40.1538V56.0625H44.6154V64.6875ZM53.5385 64.6875H49.0769V51.75H35.6923V64.6875H31.2308V4.3125H53.5385V64.6875ZM8.92308 25.875H13.3846V30.1875H8.92308V25.875ZM17.8462 25.875H22.3077V30.1875H17.8462V25.875ZM8.92308 34.5H13.3846V38.8125H8.92308V34.5ZM17.8462 34.5H22.3077V38.8125H17.8462V34.5ZM8.92308 43.125H13.3846V47.4375H8.92308V43.125ZM17.8462 43.125H22.3077V47.4375H17.8462V43.125Z" fill="#F5AF00"/>
</svg>
