<svg width="97" height="68" viewBox="0 0 97 68" fill="none" xmlns="http://www.w3.org/2000/svg">
<path fill-rule="evenodd" clip-rule="evenodd" d="M35.6993 6.02582C18.0292 11.2895 4.98653 27.3451 4.23277 46.5374C1.76995 47.3919 0 49.7351 0 52.4897V60.8881C0 64.3671 2.81975 67.1869 6.29877 67.1869H90.2824C93.7614 67.1869 96.5811 64.3671 96.5811 60.8881V52.4897C96.5811 49.7351 94.8112 47.3919 92.3484 46.5374C91.5967 27.3493 78.5541 11.2916 60.8818 6.02582C60.8146 4.45533 60.1595 2.96252 59.0426 1.84554C57.8626 0.66347 56.2606 0 54.5893 0C50.9297 0 45.6514 0 41.9918 0C40.3205 0 38.7185 0.66347 37.5386 1.84554C36.4216 2.96252 35.7665 4.45533 35.6993 6.02582ZM92.382 54.5893V52.4897C92.382 51.3308 91.4413 50.3902 90.2824 50.3902H6.29877C5.1398 50.3902 4.19918 51.3308 4.19918 52.4897V60.8881C4.19918 62.0471 5.1398 62.9877 6.29877 62.9877H90.2824C91.4413 62.9877 92.382 62.0471 92.382 60.8881V58.7885H73.4856C72.3267 58.7885 71.3861 57.8479 71.3861 56.6889C71.3861 55.53 72.3267 54.5893 73.4856 54.5893H92.382ZM60.8881 10.4308V25.1951C60.8881 26.3541 59.9475 27.2947 58.7885 27.2947C57.6295 27.2947 56.6889 26.3541 56.6889 25.1951V6.29877C56.6889 5.74238 56.4685 5.20698 56.0737 4.81436C55.6811 4.41964 55.1457 4.19918 54.5893 4.19918H41.9918C41.4354 4.19918 40.9 4.41964 40.5074 4.81436C40.1127 5.20698 39.8922 5.74238 39.8922 6.29877V25.1951C39.8922 26.3541 38.9516 27.2947 37.7926 27.2947C36.6336 27.2947 35.693 26.3541 35.693 25.1951V10.4308C31.1579 11.9404 26.9839 14.2436 23.3348 17.1746L28.5859 32.93C28.9533 34.0281 28.3571 35.2185 27.259 35.5859C26.1588 35.9513 24.9704 35.3571 24.603 34.2569L19.9314 20.2442C13.261 26.9881 8.97785 36.0961 8.45295 46.191H88.1282C87.5907 35.8337 83.0955 26.5157 76.1227 19.7214L71.279 34.2569C70.9116 35.3571 69.7211 35.9513 68.623 35.5859C67.5228 35.2185 66.9286 34.0281 67.294 32.93L72.692 16.7379C69.1773 14.0148 65.1965 11.8648 60.8881 10.4308Z" fill="#F5AF00"/>
<path fill-rule="evenodd" clip-rule="evenodd" d="M65.0873 54.5894H56.6889C55.53 54.5894 54.5894 55.53 54.5894 56.6889C54.5894 57.8479 55.53 58.7885 56.6889 58.7885H65.0873C66.2463 58.7885 67.1869 57.8479 67.1869 56.6889C67.1869 55.53 66.2463 54.5894 65.0873 54.5894Z" fill="#F5AF00"/>
</svg>
