<svg width="76" height="74" viewBox="0 0 76 74" fill="none" xmlns="http://www.w3.org/2000/svg">
<path d="M42.9331 67.2653C43.0944 67.2686 43.2547 67.2393 43.4044 67.1791C43.5542 67.1189 43.6901 67.029 43.8042 66.9149C43.9183 66.8008 44.0082 66.6648 44.0684 66.5151C44.1286 66.3654 44.1579 66.2051 44.1546 66.0437C44.1546 65.9705 44.1546 65.889 44.1546 65.8076C44.1376 65.7294 44.1131 65.653 44.0813 65.5796C44.0515 65.5049 44.0132 65.4338 43.9673 65.3678C43.9231 65.3019 43.8741 65.2393 43.8207 65.1805C43.7035 65.0716 43.5685 64.9835 43.4217 64.9199C43.3482 64.8882 43.2719 64.8636 43.1937 64.8466C43.0344 64.8221 42.8724 64.8221 42.7132 64.8466C42.635 64.8636 42.5586 64.8882 42.4852 64.9199C42.3383 64.9835 42.2034 65.0716 42.0861 65.1805C42.0328 65.2393 41.9838 65.3019 41.9396 65.3678C41.8936 65.4338 41.8554 65.5049 41.8255 65.5796C41.7274 65.801 41.6982 66.0468 41.7417 66.285C41.7853 66.5232 41.8997 66.7428 42.0699 66.9151C42.3024 67.1376 42.6112 67.2629 42.9331 67.2653ZM13.5347 65.0339C13.4696 64.9864 13.3984 64.9481 13.3229 64.9199C13.2499 64.887 13.1734 64.8624 13.0949 64.8466C12.9391 64.8141 12.7783 64.8141 12.6226 64.8466C12.3879 64.9011 12.1717 65.0163 11.9955 65.1805C11.7663 65.411 11.6376 65.7228 11.6376 66.0478C11.6376 66.3729 11.7663 66.6847 11.9955 66.9151C12.0543 66.9685 12.1169 67.0175 12.1828 67.0617C12.3167 67.1506 12.4658 67.214 12.6226 67.249H12.8587C13.1784 67.251 13.4869 67.1317 13.722 66.9151C13.9512 66.6847 14.0799 66.3729 14.0799 66.0478C14.0799 65.7228 13.9512 65.411 13.722 65.1805C13.667 65.1228 13.6039 65.0734 13.5347 65.0339ZM24.0562 65.5796C24.0231 65.5065 23.985 65.4357 23.9422 65.3678C23.8976 65.2999 23.8457 65.2371 23.7875 65.1805C23.7336 65.125 23.6734 65.0758 23.6083 65.0339C23.5413 64.9897 23.4704 64.9515 23.3966 64.9199C23.3231 64.8882 23.2467 64.8636 23.1685 64.8466C22.9707 64.8113 22.7673 64.8232 22.5749 64.8812C22.3824 64.9392 22.2064 65.0417 22.061 65.1805C22.0051 65.2392 21.9534 65.3018 21.9063 65.3678C21.8629 65.4341 21.8274 65.5051 21.8004 65.5796C21.7675 65.6526 21.7429 65.7291 21.7271 65.8076C21.7195 65.8861 21.7195 65.9652 21.7271 66.0437C21.7259 66.2063 21.7592 66.3673 21.8249 66.5161C21.8519 66.5905 21.8874 66.6616 21.9307 66.7278C21.9758 66.7928 22.0277 66.8529 22.0854 66.907C22.3153 67.1346 22.6252 67.2632 22.9487 67.2653H23.193C23.2712 67.2483 23.3475 67.2237 23.421 67.192C23.4948 67.1604 23.5657 67.1222 23.6327 67.078C23.698 67.0333 23.7581 66.9814 23.8119 66.9233C23.9417 66.772 24.0319 66.5909 24.0746 66.3962C24.1172 66.2015 24.1109 65.9992 24.0562 65.8076C24.0608 65.7316 24.0608 65.6555 24.0562 65.5796ZM33.5924 65.0339C33.5263 64.988 33.4553 64.9498 33.3806 64.9199C33.3072 64.8882 33.2308 64.8636 33.1526 64.8466C32.9941 64.8142 32.8306 64.8142 32.6721 64.8466C32.5939 64.8636 32.5176 64.8882 32.4441 64.9199C32.1461 65.0446 31.9092 65.2816 31.7845 65.5796C31.7188 65.7283 31.6855 65.8893 31.6868 66.0519C31.6897 66.3752 31.8181 66.6848 32.0451 66.9151C32.1039 66.9685 32.1665 67.0175 32.2324 67.0617C32.2984 67.1076 32.3694 67.1459 32.4441 67.1757C32.5165 67.2084 32.5934 67.2304 32.6721 67.2409H32.9083C32.9895 67.2489 33.0714 67.2489 33.1526 67.2409C33.2314 67.2304 33.3082 67.2084 33.3806 67.1757C33.4553 67.1459 33.5263 67.1076 33.5924 67.0617C33.6572 67.0194 33.7172 66.9703 33.7715 66.9151C34.0008 66.6847 34.1295 66.3729 34.1295 66.0478C34.1295 65.7228 34.0008 65.411 33.7715 65.1805C33.7191 65.1234 33.6588 65.074 33.5924 65.0339Z" fill="#F5AF00"/>
<path d="M71.6474 54.9276V49.6831C72.819 49.4069 73.8631 48.7432 74.6102 47.7994C75.3574 46.8556 75.7639 45.6872 75.7639 44.4834C75.7639 43.2797 75.3574 42.1113 74.6102 41.1675C73.8631 40.2237 72.819 39.5599 71.6474 39.2837V8.09374C72.4351 7.10049 72.8153 5.84479 72.7111 4.58144C72.6068 3.3181 72.0258 2.14173 71.086 1.29103C70.1462 0.44034 68.918 -0.0209611 67.6505 0.00073179C66.3831 0.0224247 65.1713 0.525487 64.2612 1.40784L58.2593 6.75005L44.6269 18.8677L31.7031 30.3584L29.5206 28.1677C28.148 26.7978 26.2886 26.0277 24.3494 26.026H16.727C15.1705 26.0281 13.6551 26.5257 12.4003 27.4466C11.1456 28.3676 10.2166 29.6641 9.74789 31.1483H9.21042C6.76766 31.1483 4.42496 32.1187 2.69767 33.846C0.97038 35.5732 0 37.916 0 40.3587C0 42.8015 0.97038 45.1442 2.69767 46.8715C4.42496 48.5987 6.76766 49.5691 9.21042 49.5691H9.74789C10.2151 51.0549 11.1435 52.3531 12.3984 53.2757C13.6533 54.1982 15.1695 54.6969 16.727 54.6996H19.4388V58.5271H11.7431C10.7346 58.4939 9.72981 58.6639 8.78838 59.0269C7.84696 59.3899 6.98815 59.9385 6.26305 60.6401C5.53794 61.3418 4.96136 62.1821 4.56758 63.111C4.1738 64.04 3.97088 65.0387 3.97088 66.0477C3.97088 67.0567 4.1738 68.0554 4.56758 68.9844C4.96136 69.9133 5.53794 70.7536 6.26305 71.4553C6.98815 72.1569 7.84696 72.7055 8.78838 73.0685C9.72981 73.4315 10.7346 73.6015 11.7431 73.5683H43.3973C44.4057 73.6015 45.4105 73.4315 46.352 73.0685C47.2934 72.7055 48.1522 72.1569 48.8773 71.4553C49.6024 70.7536 50.179 69.9133 50.5728 68.9844C50.9665 68.0554 51.1695 67.0567 51.1695 66.0477C51.1695 65.0387 50.9665 64.04 50.5728 63.111C50.179 62.1821 49.6024 61.3418 48.8773 60.6401C48.1522 59.9385 47.2934 59.3899 46.352 59.0269C45.4105 58.6639 44.4057 58.4939 43.3973 58.5271H35.6608V54.6996H38.3808C39.7937 54.6952 41.1752 54.2824 42.359 53.5111C43.5428 52.7398 44.4784 51.6427 45.0532 50.352C45.628 49.0613 45.8175 47.632 45.5988 46.2361C45.3801 44.8402 44.7627 43.5373 43.8207 42.4842C43.7049 42.1934 43.4798 41.9595 43.1937 41.8327L42.3793 41.0183L49.0978 33.5262L60.4988 20.7245L60.564 20.6512L69.2043 10.8789V39.2837C68.0327 39.5599 66.9887 40.2237 66.2415 41.1675C65.4944 42.1113 65.0879 43.2797 65.0879 44.4834C65.0879 45.6872 65.4944 46.8556 66.2415 47.7994C66.9887 48.7432 68.0327 49.4069 69.2043 49.6831V55.9781C69.2043 56.3021 69.333 56.6128 69.5621 56.8419C69.7912 57.071 70.1019 57.1997 70.4259 57.1997C70.8192 57.1997 71.2037 57.3164 71.5307 57.5351C71.8576 57.7538 72.1123 58.0646 72.2624 58.4282C72.4126 58.7918 72.4515 59.1917 72.3741 59.5774C72.2968 59.963 72.1067 60.3171 71.828 60.5946C71.5493 60.8722 71.1945 61.0608 70.8085 61.1366C70.4225 61.2123 70.0228 61.1718 69.6598 61.0202C69.2969 60.8685 68.9871 60.6126 68.7698 60.2847C68.5524 59.9569 68.4372 59.5719 68.4389 59.1786C68.4389 58.8546 68.3102 58.5439 68.0811 58.3148C67.852 58.0857 67.5413 57.957 67.2173 57.957C66.8933 57.957 66.5826 58.0857 66.3535 58.3148C66.1245 58.5439 65.9958 58.8546 65.9958 59.1786C65.9944 60.0024 66.2228 60.8104 66.6553 61.5116C67.0878 62.2128 67.7072 62.7796 68.4441 63.1481C69.1809 63.5167 70.006 63.6725 70.8265 63.598C71.647 63.5235 72.4304 63.2216 73.0889 62.7264C73.7473 62.2312 74.2545 61.5621 74.5537 60.7945C74.8528 60.0268 74.932 59.191 74.7822 58.3808C74.6325 57.5707 74.2598 56.8183 73.706 56.2083C73.1523 55.5983 72.4394 55.1548 71.6474 54.9276ZM39.6268 41.735H30.7665C30.0842 41.735 29.4086 41.6006 28.7783 41.3395C28.1479 41.0784 27.5751 40.6957 27.0927 40.2132C26.6102 39.7308 26.2275 39.158 25.9664 38.5276C25.7053 37.8973 25.5709 37.2217 25.5709 36.5394V28.6401C26.4109 28.856 27.1782 29.2917 27.7941 29.9023L39.6268 41.735ZM2.47566 40.3587C2.47781 38.5646 3.19149 36.8445 4.46014 35.5759C5.7288 34.3072 7.44884 33.5935 9.24299 33.5914H9.43844V47.126H9.24299C7.44884 47.1239 5.7288 46.4102 4.46014 45.1416C3.19149 43.8729 2.47781 42.1529 2.47566 40.3587ZM43.3973 60.9702C44.0812 60.9428 44.7635 61.0538 45.4035 61.2966C46.0434 61.5395 46.6277 61.9091 47.1213 62.3833C47.6148 62.8575 48.0075 63.4265 48.2757 64.0562C48.544 64.6859 48.6823 65.3633 48.6823 66.0477C48.6823 66.7321 48.544 67.4095 48.2757 68.0392C48.0075 68.6689 47.6148 69.2379 47.1213 69.7121C46.6277 70.1863 46.0434 70.5559 45.4035 70.7988C44.7635 71.0416 44.0812 71.1526 43.3973 71.1252H11.7431C11.0592 71.1526 10.3768 71.0416 9.73686 70.7988C9.09694 70.5559 8.51266 70.1863 8.01909 69.7121C7.52552 69.2379 7.13284 68.6689 6.86459 68.0392C6.59635 67.4095 6.45808 66.7321 6.45808 66.0477C6.45808 65.3633 6.59635 64.6859 6.86459 64.0562C7.13284 63.4265 7.52552 62.8575 8.01909 62.3833C8.51266 61.9091 9.09694 61.5395 9.73686 61.2966C10.3768 61.0538 11.0592 60.9428 11.7431 60.9702H43.3973ZM33.2178 58.5271H21.9144V54.6996H33.2178V58.5271ZM38.3808 52.2565H16.727C15.4311 52.2565 14.1883 51.7417 13.2719 50.8254C12.3556 49.909 11.8408 48.6662 11.8408 47.3703V33.3471C11.8408 32.0512 12.3556 30.8084 13.2719 29.892C14.1883 28.9757 15.4311 28.4609 16.727 28.4609H23.0953V36.5394C23.0974 38.5646 23.9029 40.5063 25.335 41.9384C26.767 43.3704 28.7087 44.1759 30.734 44.1781H42.0454C42.8236 45.0592 43.2523 46.1948 43.2507 47.3703C43.2507 48.6634 42.7381 49.9038 41.8253 50.8196C40.9125 51.7355 39.6739 52.2522 38.3808 52.2565ZM40.661 39.3163L34.1461 32.8014L45.653 33.6891L40.661 39.3163ZM35.3025 30.4235L44.6758 22.1252L46.6628 31.36L35.3025 30.4235ZM48.8861 30.057L46.9479 21.0095H56.9156L48.8861 30.057ZM48.6336 18.5664L57.958 10.2844L58.3489 18.5909L48.6336 18.5664ZM60.7024 16.7585L60.3278 8.89182H67.6571L60.7024 16.7585ZM62.2579 6.44874L65.9306 3.19129C66.3832 2.74772 66.9843 2.48798 67.6175 2.46244C68.2506 2.4369 68.8708 2.64736 69.3576 3.05304C69.8444 3.45872 70.1632 4.0307 70.2523 4.6581C70.3413 5.2855 70.1942 5.92361 69.8395 6.44874H62.2579ZM67.5105 44.4875C67.5056 43.9118 67.6718 43.3477 67.988 42.8666C68.3041 42.3855 68.756 42.009 69.2863 41.785C69.8166 41.561 70.4015 41.4994 70.9668 41.6082C71.5321 41.7169 72.0525 41.991 72.4618 42.3958C72.8712 42.8006 73.1511 43.3178 73.2662 43.8819C73.3813 44.446 73.3263 45.0315 73.1083 45.5643C72.8902 46.0971 72.5189 46.5532 72.0414 46.8747C71.5638 47.1962 71.0016 47.3687 70.4259 47.3703C69.659 47.3704 68.9232 47.0674 68.3787 46.5275C67.8342 45.9875 67.5251 45.2543 67.5186 44.4875H67.5105Z" fill="#F5AF00"/>
</svg>
