<svg width="18" height="18" viewBox="0 0 18 18" fill="none" xmlns="http://www.w3.org/2000/svg">
<path d="M17.2151 9.58924C17.0195 9.58924 16.8239 9.511 16.6674 9.37408L9 1.88264L1.33257 9.37408C1.01961 9.66748 0.530618 9.66748 0.217662 9.35452C-0.075735 9.04156 -0.075735 8.55257 0.237221 8.23961L8.45233 0.220049C8.76528 -0.0733496 9.23472 -0.0733496 9.54767 0.220049L17.7628 8.23961C18.0757 8.53301 18.0757 9.04156 17.7823 9.35452C17.6259 9.511 17.4107 9.58924 17.2151 9.58924ZM15.4938 17.2176V9.56968C15.4938 9.13937 15.1418 8.78729 14.7115 8.78729C14.2811 8.78729 13.9291 9.13937 13.9291 9.56968V16.4352H11.4841V12.2494C11.4841 11.6822 11.0147 11.2127 10.4474 11.2127H7.55258C6.98534 11.2127 6.51591 11.6822 6.51591 12.2494V16.4352H4.07094V9.56968C4.07094 9.13937 3.71886 8.78729 3.28855 8.78729C2.85823 8.78729 2.50616 9.13937 2.50616 9.56968V17.2176C2.50616 17.6479 2.85823 18 3.28855 18H7.2983C7.72861 18 8.08069 17.6479 8.08069 17.2176V12.7775H9.93887V17.2176C9.93887 17.6479 10.2909 18 10.7213 18H14.731C15.1613 18 15.4938 17.6479 15.4938 17.2176Z" fill="#F5AF00"/>
</svg>
