<svg width="17" height="17" viewBox="0 0 17 17" fill="none" xmlns="http://www.w3.org/2000/svg">
<mask id="mask0_51_12" style="mask-type:luminance" maskUnits="userSpaceOnUse" x="0" y="0" width="17" height="17">
<path d="M0 0H17V17H0V0Z" fill="white"/>
</mask>
<g mask="url(#mask0_51_12)">
<path d="M8.5 1.53071C10.7713 1.53071 11.0401 1.54062 11.9333 1.58029C12.7631 1.61712 13.2118 1.75667 13.5104 1.87283C13.9056 2.02548 14.1911 2.21142 14.4865 2.50679C14.7854 2.80571 14.9681 3.08798 15.1204 3.48323C15.237 3.78215 15.3765 4.23335 15.413 5.06033C15.4526 5.95673 15.4626 6.22554 15.4626 8.49362C15.4626 10.7645 15.4526 11.0334 15.413 11.9266C15.3765 12.7567 15.237 13.2051 15.1208 13.5037C14.9681 13.8989 14.7819 14.1844 14.4868 14.4801C14.1876 14.7787 13.9053 14.9618 13.5104 15.1141C13.2115 15.2302 12.7599 15.3698 11.9333 15.4062C11.0365 15.4463 10.7681 15.4562 8.5 15.4562C6.22873 15.4562 5.95992 15.4463 5.06671 15.4066C4.2369 15.3698 3.78817 15.2302 3.4896 15.1141C3.09471 14.9618 2.8089 14.7755 2.51352 14.4801C2.2146 14.1812 2.03185 13.8993 1.87956 13.5037C1.76304 13.2051 1.6235 12.7535 1.58702 11.9266C1.54735 11.0305 1.53744 10.7614 1.53744 8.49362C1.53744 6.22235 1.54735 5.95354 1.58702 5.06033C1.6235 4.23017 1.76304 3.78179 1.87921 3.48323C2.03185 3.08798 2.21815 2.80252 2.51317 2.50679C2.81244 2.20823 3.09471 2.02548 3.4896 1.87283C3.78852 1.75667 4.24008 1.61712 5.06671 1.58065C5.95992 1.54062 6.22873 1.53071 8.5 1.53071ZM8.5 0.000354167C6.19225 0.000354167 5.9036 0.0102708 4.99729 0.0502917C4.09417 0.0899583 3.47296 0.236229 2.93533 0.445542C2.37398 0.664417 1.89904 0.953417 1.42765 1.42835C0.953062 1.8994 0.664062 2.37433 0.444833 2.93215C0.235875 3.47331 0.0896042 4.09062 0.0499375 4.99375C0.00991667 5.90396 0 6.1926 0 8.5C0 10.8074 0.00991666 11.0967 0.0495833 12.0031C0.0896042 12.9062 0.235875 13.527 0.444833 14.065C0.664062 14.626 0.953062 15.101 1.42765 15.5724C1.85143 16.0049 2.36486 16.3393 2.93179 16.552C3.47296 16.7609 4.09062 16.9072 4.99375 16.9469C5.90042 16.9869 6.18906 16.9968 8.49646 16.9968C10.8039 16.9968 11.0932 16.9869 11.9995 16.9472C12.9026 16.9072 13.5235 16.7609 14.0615 16.552C14.6284 16.3393 15.1418 16.0049 15.5656 15.5724C15.9981 15.1486 16.3325 14.6351 16.5452 14.0682C16.7542 13.527 16.9005 12.9094 16.9401 12.0062C16.9802 11.0999 16.9897 10.8109 16.9897 8.50354C16.9897 6.19615 16.9802 5.90715 16.9401 5.00083C16.9005 4.09771 16.7542 3.4765 16.5452 2.93852C16.3359 2.37398 16.0469 1.8994 15.5724 1.428C15.1486 0.99548 14.6351 0.661093 14.0682 0.448375C13.527 0.239417 12.9094 0.0931458 12.0062 0.053125C11.0964 0.0102708 10.8077 0 8.5 0" fill="#F5F5F5"/>
<path d="M8.49996 4.13402C6.0895 4.13402 4.13379 6.08973 4.13379 8.50019C4.13379 10.911 6.0895 12.8667 8.49996 12.8667C10.9104 12.8667 12.8661 10.911 12.8661 8.49983C12.8661 6.08937 10.9104 4.13367 8.49996 4.13367M8.49996 11.3321C7.75655 11.3203 7.04757 11.0168 6.52601 10.4869C6.00444 9.95703 5.71212 9.24333 5.71212 8.49983C5.71212 7.75633 6.00444 7.04264 6.52601 6.51276C7.04757 5.98289 7.75655 5.67932 8.49996 5.66756C9.24336 5.67932 9.95235 5.98289 10.4739 6.51276C10.9955 7.04264 11.2878 7.75633 11.2878 8.49983C11.2878 9.24333 10.9955 9.95703 10.4739 10.4869C9.95235 11.0168 9.24336 11.3203 8.49996 11.3321ZM14.0582 3.96154C14.0582 4.16322 13.9984 4.36037 13.8864 4.52806C13.7743 4.69575 13.6151 4.82644 13.4287 4.9036C13.2424 4.98077 13.0374 5.00094 12.8395 4.96157C12.6417 4.9222 12.4601 4.82505 12.3175 4.68241C12.1749 4.53978 12.0778 4.35806 12.0385 4.16025C11.9992 3.96243 12.0194 3.7574 12.0967 3.57109C12.1739 3.38478 12.3046 3.22556 12.4724 3.11356C12.6401 3.00157 12.8373 2.94182 13.039 2.94189C13.3091 2.94255 13.5681 3.0502 13.7591 3.24129C13.9501 3.43238 14.0577 3.69135 14.0582 3.96154Z" fill="#F5F5F5"/>
</g>
</svg>
