<svg width="19" height="15" viewBox="0 0 19 15" fill="none" xmlns="http://www.w3.org/2000/svg">
<path d="M15.4768 0H2.88863C2.17321 0 1.4871 0.284196 0.981231 0.790069C0.475358 1.29594 0.191162 1.98205 0.191162 2.69746V11.689C0.191162 12.4044 0.475358 13.0905 0.981231 13.5964C1.4871 14.1023 2.17321 14.3865 2.88863 14.3865H15.4768C16.1922 14.3865 16.8783 14.1023 17.3842 13.5964C17.8901 13.0905 18.1743 12.4044 18.1743 11.689V2.69746C18.1743 1.98205 17.8901 1.29594 17.3842 0.790069C16.8783 0.284196 16.1922 0 15.4768 0ZM14.8744 1.79831L9.18271 6.06929L3.49106 1.79831H14.8744ZM15.4768 12.5882H2.88863C2.65016 12.5882 2.42145 12.4934 2.25283 12.3248C2.0842 12.1562 1.98947 11.9275 1.98947 11.689V2.92225L8.64321 7.91256C8.79885 8.02929 8.98816 8.09239 9.18271 8.09239C9.37726 8.09239 9.56656 8.02929 9.7222 7.91256L16.3759 2.92225V11.689C16.3759 11.9275 16.2812 12.1562 16.1126 12.3248C15.944 12.4934 15.7153 12.5882 15.4768 12.5882Z" fill="#F5AF00"/>
</svg>
