<svg width="13" height="20" viewBox="0 0 13 20" fill="none" xmlns="http://www.w3.org/2000/svg">
<path d="M9.96494 0H2.46147C1.90442 0 1.37017 0.222136 0.976274 0.617542C0.582374 1.01295 0.361084 1.54923 0.361084 2.10842V16.911C0.361084 17.4702 0.582374 18.0065 0.976274 18.4019C1.37017 18.7973 1.90442 19.0194 2.46147 19.0194H9.96494C10.522 19.0194 11.0562 18.7973 11.4501 18.4019C11.844 18.0065 12.0653 17.4702 12.0653 16.911V2.10842C12.0653 1.54923 11.844 1.01295 11.4501 0.617542C11.0562 0.222136 10.522 0 9.96494 0ZM10.5009 16.911C10.5009 17.0537 10.4444 17.1905 10.3439 17.2914C10.2434 17.3923 10.1071 17.449 9.96494 17.449H2.46147C2.31933 17.449 2.183 17.3923 2.08249 17.2914C1.98198 17.1905 1.92551 17.0537 1.92551 16.911V2.10842C1.92551 1.96573 1.98198 1.82889 2.08249 1.72799C2.183 1.62709 2.31933 1.57041 2.46147 1.57041H9.96494C10.1071 1.57041 10.2434 1.62709 10.3439 1.72799C10.4444 1.82889 10.5009 1.96573 10.5009 2.10842V16.911Z" fill="#F5AF00"/>
<path d="M6.91666 14.1426H5.50989C5.30842 14.1426 5.1152 14.2196 4.97274 14.3568C4.83028 14.494 4.75024 14.6801 4.75024 14.8741C4.75024 15.0681 4.83028 15.2542 4.97274 15.3914C5.1152 15.5285 5.30842 15.6056 5.50989 15.6056H6.91666C7.11813 15.6056 7.31135 15.5285 7.45381 15.3914C7.59627 15.2542 7.67631 15.0681 7.67631 14.8741C7.67631 14.6801 7.59627 14.494 7.45381 14.3568C7.31135 14.2196 7.11813 14.1426 6.91666 14.1426Z" fill="#F5AF00"/>
</svg>
