<svg width="93" height="69" viewBox="0 0 93 69" fill="none" xmlns="http://www.w3.org/2000/svg">
<path d="M75.1725 40.3528C74.8389 40.3528 74.5053 40.2368 74.2443 40.0047C63.4535 30.4903 68.0512 14.3623 68.2543 13.6806C68.4718 12.9409 69.255 12.5203 69.9947 12.7233C70.7344 12.9409 71.1695 13.7241 70.9519 14.4638C70.9084 14.6088 66.6589 29.5621 76.1007 37.8872C76.6809 38.3948 76.7389 39.294 76.2313 39.8742C75.9557 40.1933 75.5641 40.3528 75.1725 40.3528Z" fill="#F5AF00"/>
<path d="M83.309 66.7641C82.5258 66.7641 81.9021 66.1404 81.9021 65.3572V59.6283C81.9021 58.8451 82.5258 58.2214 83.309 58.2214C84.0921 58.2214 84.7158 58.8451 84.7158 59.6283V65.3572C84.7158 66.1404 84.0776 66.7641 83.309 66.7641Z" fill="#F5AF00"/>
<path d="M47.1949 16.8716C46.6003 16.8716 46.0491 16.4945 45.8606 15.8998C44.9758 13.1586 46.2087 10.1999 48.7758 8.86555L54.5773 5.8778C55.2589 5.51521 56.1147 5.79078 56.4627 6.48695L59.2039 11.8098C59.5665 12.506 59.291 13.3472 58.5948 13.7098C57.8986 14.0724 57.0574 13.7968 56.6948 13.1006L54.5918 9.02509L50.0521 11.3602C48.7033 12.0564 48.0651 13.6082 48.5292 15.0296C48.7613 15.7693 48.3552 16.567 47.6155 16.799C47.485 16.8426 47.3399 16.8716 47.1949 16.8716Z" fill="#F5AF00"/>
<path d="M50.3857 17.7563C49.8781 17.7563 49.3849 17.4807 49.1384 16.9876C48.7903 16.2914 49.0514 15.4502 49.7475 15.0876L66.3397 6.54499C67.0214 6.1969 67.8771 6.45797 68.2397 7.15414C68.5878 7.85032 68.3267 8.69153 67.6305 9.05412L51.0383 17.5968C50.8208 17.7128 50.6032 17.7563 50.3857 17.7563Z" fill="#F5AF00"/>
<path d="M19.8845 21.9332C19.1013 21.9332 18.4776 21.3095 18.4776 20.5263V17.5531L17.3608 16.9729V20.5263C17.3608 21.3095 16.7372 21.9332 15.954 21.9332C15.1708 21.9332 14.5471 21.3095 14.5471 20.5263V14.6523C14.5471 14.1592 14.8082 13.7096 15.2288 13.4485C15.6494 13.1875 16.1715 13.173 16.6066 13.405L20.5371 15.4645C21.0012 15.7111 21.2913 16.1897 21.2913 16.7118V20.5408C21.2913 21.3095 20.6677 21.9332 19.8845 21.9332ZM19.2318 53.029C18.4486 53.029 17.8249 52.4053 17.8249 51.6222V46.7199C17.8249 45.9367 18.4486 45.3131 19.2318 45.3131C20.015 45.3131 20.6387 45.9367 20.6387 46.7199V51.6222C20.6387 52.4053 20.015 53.029 19.2318 53.029ZM48.6452 53.029C47.862 53.029 47.2384 52.4053 47.2384 51.6222V46.7199C47.2384 45.9367 47.862 45.3131 48.6452 45.3131C49.4284 45.3131 50.0521 45.9367 50.0521 46.7199V51.6222C50.0521 52.4053 49.4284 53.029 48.6452 53.029Z" fill="#F5AF00"/>
<path d="M60.2192 68.0407H8.90524C4.00301 68.0407 0 64.0377 0 59.1209C0 54.2042 4.00301 50.2157 8.90524 50.2157H60.2192C65.1359 50.2157 69.1389 54.2187 69.1389 59.1209C69.1389 64.0377 65.1359 68.0407 60.2192 68.0407ZM8.90524 53.0294C5.5404 53.0294 2.79921 55.7706 2.79921 59.1354C2.79921 62.5003 5.5404 65.2415 8.90524 65.2415H60.2192C63.584 65.2415 66.3252 62.5003 66.3252 59.1354C66.3252 55.7706 63.584 53.0294 60.2192 53.0294H8.90524Z" fill="#F5AF00"/>
<path d="M78.0152 49.3886C77.232 49.3886 76.6083 48.765 76.6083 47.9818V41.1796C76.6083 40.3964 77.232 39.7727 78.0152 39.7727C78.7984 39.7727 79.422 40.3964 79.422 41.1796V47.9818C79.422 48.765 78.7839 49.3886 78.0152 49.3886ZM89.2845 49.4031C88.5013 49.4031 87.8777 48.7795 87.8777 47.9963V41.1651C87.8777 40.3819 88.5013 39.7582 89.2845 39.7582C90.0677 39.7582 90.6914 40.3819 90.6914 41.1651V47.9963C90.6914 48.7795 90.0532 49.4031 89.2845 49.4031ZM83.309 61.0351C83.0479 61.0351 82.7869 60.9625 82.5548 60.8175L79.5671 58.932C79.161 58.671 78.9144 58.2214 78.9144 57.7427V52.4344C78.9144 51.6512 79.5381 51.0275 80.3213 51.0275C81.1045 51.0275 81.7281 51.6512 81.7281 52.4344V56.9595L83.2655 57.9313L84.8609 56.8145V52.4344C84.8609 51.6512 85.4846 51.0275 86.2678 51.0275C87.051 51.0275 87.6746 51.6512 87.6746 52.4344V57.5542C87.6746 58.0183 87.4426 58.4389 87.0655 58.7145L84.0922 60.7885C83.8601 60.948 83.5846 61.0351 83.309 61.0351ZM52.7498 24.1523C52.2422 24.1523 51.7491 23.8767 51.5025 23.3836C51.1399 22.6874 51.4155 21.8462 52.1116 21.4836L68.9649 12.8104C69.6611 12.4478 70.5023 12.7234 70.8649 13.4196C71.2275 14.1157 70.9519 14.957 70.2557 15.3196L53.4025 23.9927C53.1994 24.1088 52.9674 24.1523 52.7498 24.1523Z" fill="#F5AF00"/>
<path d="M89.183 53.856H77.406C75.4045 53.856 73.7656 52.2171 73.7656 50.2156C73.7656 48.2141 75.4045 46.5752 77.406 46.5752H89.183C91.1845 46.5752 92.8234 48.2141 92.8234 50.2156C92.8234 52.2171 91.1845 53.856 89.183 53.856ZM77.406 49.3889C76.9564 49.3889 76.5793 49.766 76.5793 50.2156C76.5793 50.6652 76.9564 51.0423 77.406 51.0423H89.183C89.6326 51.0423 90.0097 50.6652 90.0097 50.2156C90.0097 49.766 89.6326 49.3889 89.183 49.3889H77.406Z" fill="#F5AF00"/>
<path d="M22.2486 29.1562C21.4654 29.1562 20.8418 28.5325 20.8418 27.7493V21.9479H14.9968V27.7058C14.9968 28.489 14.3732 29.1127 13.59 29.1127C12.8068 29.1127 12.1831 28.489 12.1831 27.7058V21.0341C12.1831 19.9899 13.0388 19.1342 14.0831 19.1342H21.7555C22.7998 19.1342 23.6555 19.9899 23.6555 21.0341V27.7493C23.6555 28.518 23.0318 29.1562 22.2486 29.1562Z" fill="#F5AF00"/>
<path d="M55.2444 42.5867C54.5482 42.5867 53.9536 42.079 53.852 41.3684L50.9223 19.8014C50.6902 18.1335 49.2689 16.8862 47.5865 16.8862H34.3301C32.4736 16.8862 30.9653 18.3946 30.9653 20.251V27.8074C30.9653 28.1845 30.8202 28.5471 30.5447 28.8082C30.2836 29.0693 29.9355 29.1998 29.5439 29.2143L9.48535 29.0693H9.47085C7.81743 29.0693 6.46859 30.3601 6.39607 31.999L5.91745 41.2523C5.87394 42.021 5.20677 42.6157 4.43808 42.5867C3.65488 42.5432 3.06023 41.8905 3.10374 41.1073L3.58237 31.8685C3.7274 28.7212 6.30905 26.2556 9.47085 26.2556C9.48535 26.2556 9.49986 26.2556 9.49986 26.2556L28.1516 26.3716V20.2365C28.1516 16.8282 30.9218 14.058 34.3301 14.058H47.5865C50.6612 14.058 53.2864 16.3641 53.707 19.4098L56.6367 40.9913C56.7383 41.76 56.2016 42.4706 55.4329 42.5722C55.3749 42.5722 55.3024 42.5867 55.2444 42.5867Z" fill="#F5AF00"/>
<path d="M55.6215 48.1414H4.17705C1.87097 48.1414 0 46.2559 0 43.9498C0 41.6437 1.87097 39.7728 4.17705 39.7728H55.607C57.9131 39.7728 59.7841 41.6437 59.7841 43.9498C59.7986 46.2559 57.9276 48.1414 55.6215 48.1414ZM4.17705 42.5865C3.42286 42.5865 2.81371 43.1956 2.81371 43.9498C2.81371 44.704 3.42286 45.3132 4.17705 45.3132H55.607C56.3612 45.3132 56.9704 44.704 56.9704 43.9498C56.9704 43.1956 56.3612 42.5865 55.607 42.5865H4.17705ZM39.2034 35.9583H34.5622C33.779 35.9583 33.1554 35.3347 33.1554 34.5515V23.5287C33.1554 23.0066 33.4454 22.5134 33.9095 22.2814C35.6065 21.4112 37.869 21.7447 39.2469 23.1226C40.1171 23.9928 40.5957 25.1531 40.5957 26.3859V34.5515C40.6102 35.3202 39.9721 35.9583 39.2034 35.9583ZM35.9691 33.1446H37.7965V26.3859C37.7965 25.9073 37.608 25.4577 37.2744 25.1096C36.9263 24.7615 36.4332 24.602 35.9691 24.5875V33.1446ZM56.4482 10.9395C56.2887 10.9395 56.1146 10.9105 55.9551 10.8525C55.2299 10.5769 54.8673 9.76472 55.1429 9.03953C55.2009 8.909 56.4337 5.70369 59.61 4.36936C61.7421 3.48464 64.1642 3.61517 66.8038 4.80447C67.5145 5.12355 67.8336 5.95026 67.5145 6.66094C67.1954 7.37161 66.3687 7.69069 65.658 7.37161C63.7581 6.5304 62.0901 6.38537 60.7123 6.95101C58.6528 7.80672 57.7681 10.0113 57.7536 10.0258C57.5505 10.5914 57.0139 10.9395 56.4482 10.9395Z" fill="#F5AF00"/>
<path d="M34.5622 24.9357C33.779 24.9357 33.1554 24.3121 33.1554 23.5289V15.4648C33.1554 14.6816 33.779 14.058 34.5622 14.058C35.3454 14.058 35.9691 14.6816 35.9691 15.4648V23.5289C35.9691 24.2976 35.3454 24.9357 34.5622 24.9357ZM54.1566 35.9585H39.2034C38.4202 35.9585 37.7965 35.3348 37.7965 34.5516C37.7965 33.7684 38.4202 33.1448 39.2034 33.1448H54.1566C54.9398 33.1448 55.5635 33.7684 55.5635 34.5516C55.5635 35.3203 54.9398 35.9585 54.1566 35.9585ZM8.90524 68.0406C4.00301 68.0406 0 64.0376 0 59.1208C0 54.2041 4.00301 50.2156 8.90524 50.2156C13.822 50.2156 17.825 54.2186 17.825 59.1208C17.825 64.0376 13.822 68.0406 8.90524 68.0406ZM8.90524 53.0293C5.5404 53.0293 2.79921 55.7705 2.79921 59.1353C2.79921 62.5002 5.5404 65.2414 8.90524 65.2414C12.2701 65.2414 15.0113 62.5002 15.0113 59.1353C15.0113 55.756 12.2701 53.0293 8.90524 53.0293ZM34.5622 68.0406C29.6455 68.0406 25.657 64.0376 25.657 59.1353C25.657 54.2186 29.66 50.2301 34.5622 50.2301C39.4789 50.2301 43.482 54.2331 43.482 59.1353C43.482 64.0376 39.4789 68.0406 34.5622 68.0406ZM34.5622 53.0293C31.1974 53.0293 28.4562 55.7705 28.4562 59.1353C28.4562 62.5002 31.1974 65.2414 34.5622 65.2414C37.9271 65.2414 40.6682 62.5002 40.6682 59.1353C40.6682 55.756 37.9271 53.0293 34.5622 53.0293ZM60.2192 68.0406C55.3024 68.0406 51.3139 64.0376 51.3139 59.1353C51.3139 54.2186 55.3169 50.2301 60.2192 50.2301C65.1359 50.2301 69.1389 54.2331 69.1389 59.1353C69.1244 64.0376 65.1359 68.0406 60.2192 68.0406ZM60.2192 53.0293C56.8543 53.0293 54.1131 55.7705 54.1131 59.1353C54.1131 62.5002 56.8543 65.2414 60.2192 65.2414C63.584 65.2414 66.3252 62.5002 66.3252 59.1353C66.3107 55.756 63.584 53.0293 60.2192 53.0293Z" fill="#F5AF00"/>
<path d="M86.4997 38.1193C85.9486 38.1193 85.4265 37.8003 85.2089 37.2636L71.1839 4.00675C70.7778 3.035 69.632 2.52737 68.5877 2.96248C67.587 3.38309 67.1083 4.54338 67.5435 5.54413L80.4517 36.1759C80.7563 36.8865 80.4227 37.7132 79.6975 38.0178C78.9868 38.3079 78.1601 37.9888 77.8556 37.2636L64.9473 6.63191C63.9175 4.2098 65.0633 1.39609 67.4854 0.36633C69.9511 -0.66343 72.7938 0.569381 73.7655 2.91897L87.7906 36.1759C88.0951 36.8865 87.7616 37.7132 87.0364 38.0178C86.8623 38.0903 86.6738 38.1193 86.4997 38.1193Z" fill="#F5AF00"/>
<path d="M89.183 42.5866H77.406C75.4045 42.5866 73.7656 40.9477 73.7656 38.9462C73.7656 36.9447 75.4045 35.3058 77.406 35.3058H89.183C91.1845 35.3058 92.8234 36.9447 92.8234 38.9462C92.8234 40.9477 91.1845 42.5866 89.183 42.5866ZM77.406 38.1195C76.9564 38.1195 76.5793 38.4966 76.5793 38.9462C76.5793 39.3958 76.9564 39.7729 77.406 39.7729H89.183C89.6326 39.7729 90.0097 39.3958 90.0097 38.9462C90.0097 38.4966 89.6326 38.1195 89.183 38.1195H77.406Z" fill="#F5AF00"/>
</svg>
