<svg width="73" height="73" viewBox="0 0 73 73" fill="none" xmlns="http://www.w3.org/2000/svg">
<path d="M36.5 73C56.6577 73 73 56.6577 73 36.5C73 16.3423 56.6577 0 36.5 0C16.3423 0 0 16.3423 0 36.5C0 56.6577 16.3423 73 36.5 73ZM18.9897 40.8459L34.7723 25.0633C34.9991 24.8366 35.2685 24.6571 35.565 24.5351C35.8616 24.4132 36.1794 24.3512 36.5 24.3528C37.1278 24.3528 37.7507 24.5864 38.2277 25.0633L54.0103 40.8459C54.4535 41.3049 54.6988 41.9195 54.6932 42.5575C54.6877 43.1956 54.4318 43.8059 53.9806 44.257C53.5295 44.7082 52.9192 44.9641 52.2811 44.9696C51.6431 44.9752 51.0285 44.7299 50.5695 44.2867L36.5 30.2171L22.4305 44.2867C21.9715 44.7299 21.3569 44.9752 20.7189 44.9696C20.0808 44.9641 19.4705 44.7082 19.0194 44.257C18.5682 43.8059 18.3123 43.1956 18.3068 42.5575C18.3012 41.9195 18.5465 41.3049 18.9897 40.8459Z" fill="#F5AF00"/>
</svg>
