<svg width="17" height="17" viewBox="0 0 17 17" fill="none" xmlns="http://www.w3.org/2000/svg">
<path d="M12.4684 10.2085C12.2976 10.1236 11.1874 9.61423 11.0166 9.52934C10.8458 9.44444 10.675 9.44444 10.5042 9.61423C10.3334 9.78402 9.99182 10.2934 9.82102 10.4632C9.73562 10.633 9.56482 10.633 9.39402 10.5481C8.79622 10.2934 8.19842 9.95381 7.68601 9.52934C7.25901 9.10487 6.83201 8.59551 6.49041 8.08614C6.40501 7.91635 6.49041 7.74657 6.57581 7.66167C6.66121 7.57678 6.74661 7.40699 6.91741 7.3221C7.00281 7.2372 7.08821 7.06742 7.08821 6.98252C7.17361 6.89763 7.17361 6.72784 7.08821 6.64295C7.00281 6.55805 6.57581 5.53933 6.40501 5.11486C6.31961 4.5206 6.14881 4.5206 5.97801 4.5206H5.55101C5.38021 4.5206 5.12401 4.69039 5.03861 4.77528C4.52621 5.28464 4.27001 5.8789 4.27001 6.55805C4.35541 7.3221 4.61161 8.08614 5.12401 8.76529C6.06341 10.1236 7.25901 11.2272 8.71082 11.9064C9.13782 12.0762 9.47942 12.2459 9.90642 12.3308C10.3334 12.5006 10.7604 12.5006 11.2728 12.4157C11.8706 12.3308 12.383 11.9064 12.7246 11.397C12.8954 11.0574 12.8954 10.7179 12.81 10.3783L12.4684 10.2085ZM14.6034 2.48315C11.2728 -0.827715 5.89261 -0.827715 2.562 2.48315C-0.1708 5.19975 -0.683201 9.35955 1.1956 12.6704L0 17L4.52621 15.8115C5.80721 16.4906 7.17361 16.8302 8.54002 16.8302C13.237 16.8302 16.9946 13.0949 16.9946 8.42572C17.08 6.21848 16.1406 4.09613 14.6034 2.48315ZM12.2976 14.3683C11.1874 15.0474 9.90642 15.4719 8.54002 15.4719C7.25901 15.4719 6.06341 15.1323 4.95321 14.5381L4.69701 14.3683L2.0496 15.0474L2.7328 12.5006L2.562 12.2459C0.512401 8.85019 1.5372 4.60549 4.86781 2.48315C8.19842 0.360799 12.4684 1.46442 14.518 4.69039C16.5676 8.00125 15.6282 12.3308 12.2976 14.3683Z" fill="#F5F5F5"/>
</svg>
